<svg width="27.994995" height="28.005005" viewBox="0 0 27.995 28.005" fill="none" xmlns="http://www.w3.org/2000/svg" xmlns:xlink="http://www.w3.org/1999/xlink">
	<path id="Vector" d="M11.82 0.41L19.34 7.94L19.42 7.86C19.58 7.71 19.79 7.62 20.01 7.62C20.23 7.62 20.45 7.7 20.61 7.85L20.61 7.86L21.48 8.72C21.79 9.03 21.8 9.49 21.56 9.82L21.56 9.83L21.42 10.02L27.58 16.18C28.13 16.73 28.13 17.61 27.58 18.16L18.15 27.59C17.6 28.14 16.72 28.14 16.17 27.59L11.72 23.14C11.65 23.23 11.55 23.31 11.45 23.36C11.34 23.42 11.23 23.45 11.11 23.46C10.99 23.46 10.87 23.45 10.76 23.4C10.65 23.36 10.55 23.3 10.46 23.21L7.86 20.61C7.71 20.45 7.62 20.24 7.62 20.02C7.62 19.8 7.7 19.59 7.85 19.43L7.86 19.42L7.93 19.34L0.41 11.82C-0.14 11.27 -0.14 10.39 0.41 9.84L9.84 0.41C10.39 -0.14 11.27 -0.14 11.82 0.41L11.82 0.41ZM18.4 8.89L16.64 7.13C16.59 7.08 16.52 7.03 16.45 7C16.38 6.97 16.3 6.95 16.22 6.95C16.14 6.95 16.06 6.97 15.99 7C15.91 7.03 15.85 7.08 15.79 7.13L12.21 10.71C12.16 10.77 12.11 10.84 12.08 10.91C12.05 10.98 12.03 11.06 12.03 11.14C12.03 11.22 12.05 11.3 12.08 11.38C12.11 11.45 12.16 11.52 12.21 11.57L13.96 13.32L14.57 12.71L13.01 11.15L16.22 7.93L17.79 9.5L18.4 8.89ZM13.32 13.96L11.57 12.21C11.51 12.15 11.45 12.1 11.38 12.07C11.3 12.04 11.22 12.03 11.14 12.03C11.07 12.03 10.99 12.04 10.91 12.07C10.84 12.1 10.77 12.15 10.72 12.21L7.14 15.79L7.13 15.79L7.13 15.8C6.89 16.03 6.89 16.41 7.13 16.65L8.88 18.4L9.5 17.78L7.93 16.22L11.15 13.01L12.71 14.57L13.32 13.96ZM6.82 6.19L10.4 9.77C10.64 10.01 11.02 10.01 11.25 9.76L14.83 6.18C14.88 6.12 14.93 6.06 14.96 5.99C14.99 5.91 15.01 5.84 15.01 5.76L15.02 5.76C15.02 5.61 14.96 5.45 14.84 5.33L11.26 1.75C11.2 1.69 11.13 1.65 11.06 1.62C10.99 1.58 10.91 1.57 10.83 1.57C10.75 1.57 10.67 1.58 10.59 1.62C10.52 1.65 10.45 1.69 10.4 1.75L6.82 5.34C6.58 5.57 6.58 5.95 6.82 6.19ZM1.75 11.26L5.33 14.84C5.57 15.08 5.95 15.08 6.18 14.84L9.76 11.26C9.82 11.2 9.86 11.14 9.89 11.06C9.92 10.99 9.94 10.91 9.94 10.83L9.95 10.83C9.95 10.67 9.89 10.52 9.77 10.4L6.19 6.82C6.13 6.76 6.07 6.72 5.99 6.69C5.92 6.65 5.84 6.64 5.76 6.64C5.68 6.64 5.6 6.65 5.53 6.69C5.46 6.72 5.39 6.76 5.34 6.82L1.75 10.41C1.51 10.64 1.51 11.02 1.75 11.26ZM8.68 20.01L11.04 22.38L20.68 9.34L20.02 8.68L8.68 20.01Z" fill="#111111" fill-opacity="1.000000" fill-rule="nonzero"/>
	<path id="Vector" d="M11.82 0.41L19.34 7.94L19.42 7.86C19.58 7.71 19.79 7.62 20.01 7.62C20.23 7.62 20.45 7.7 20.61 7.85L20.61 7.86L21.48 8.72C21.79 9.03 21.8 9.49 21.56 9.82L21.56 9.83L21.42 10.02L27.58 16.18C28.13 16.73 28.13 17.61 27.58 18.16L18.15 27.59C17.6 28.14 16.72 28.14 16.17 27.59L11.72 23.14C11.65 23.23 11.55 23.31 11.45 23.36C11.34 23.42 11.23 23.45 11.11 23.46C10.99 23.46 10.87 23.45 10.76 23.4C10.65 23.36 10.55 23.3 10.46 23.21L7.86 20.61C7.71 20.45 7.62 20.24 7.62 20.02C7.62 19.8 7.7 19.59 7.85 19.43L7.86 19.42L7.93 19.34L0.41 11.82C-0.14 11.27 -0.14 10.39 0.41 9.84L9.84 0.41C10.39 -0.14 11.27 -0.14 11.82 0.41L11.82 0.41ZM18.4 8.89L16.64 7.13C16.59 7.08 16.52 7.03 16.45 7C16.38 6.97 16.3 6.95 16.22 6.95C16.14 6.95 16.06 6.97 15.99 7C15.91 7.03 15.85 7.08 15.79 7.13L12.21 10.71C12.16 10.77 12.11 10.84 12.08 10.91C12.05 10.98 12.03 11.06 12.03 11.14C12.03 11.22 12.05 11.3 12.08 11.38C12.11 11.45 12.16 11.52 12.21 11.57L13.96 13.32L14.57 12.71L13.01 11.15L16.22 7.93L17.79 9.5L18.4 8.89ZM13.32 13.96L11.57 12.21C11.51 12.15 11.45 12.1 11.38 12.07C11.3 12.04 11.22 12.03 11.14 12.03C11.07 12.03 10.99 12.04 10.91 12.07C10.84 12.1 10.77 12.15 10.72 12.21L7.14 15.79L7.13 15.79L7.13 15.8C6.89 16.03 6.89 16.41 7.13 16.65L8.88 18.4L9.5 17.78L7.93 16.22L11.15 13.01L12.71 14.57L13.32 13.96ZM6.82 6.19L10.4 9.77C10.64 10.01 11.02 10.01 11.25 9.76L14.83 6.18C14.88 6.12 14.93 6.06 14.96 5.99C14.99 5.91 15.01 5.84 15.01 5.76L15.02 5.76C15.02 5.61 14.96 5.45 14.84 5.33L11.26 1.75C11.2 1.69 11.13 1.65 11.06 1.62C10.99 1.58 10.91 1.57 10.83 1.57C10.75 1.57 10.67 1.58 10.59 1.62C10.52 1.65 10.45 1.69 10.4 1.75L6.82 5.34C6.58 5.57 6.58 5.95 6.82 6.19ZM1.75 11.26L5.33 14.84C5.57 15.08 5.95 15.08 6.18 14.84L9.76 11.26C9.82 11.2 9.86 11.14 9.89 11.06C9.92 10.99 9.94 10.91 9.94 10.83L9.95 10.83C9.95 10.67 9.89 10.52 9.77 10.4L6.19 6.82C6.13 6.76 6.07 6.72 5.99 6.69C5.92 6.65 5.84 6.64 5.76 6.64C5.68 6.64 5.6 6.65 5.53 6.69C5.46 6.72 5.39 6.76 5.34 6.82L1.75 10.41C1.51 10.64 1.51 11.02 1.75 11.26ZM8.68 20.01L11.04 22.38L20.68 9.34L20.02 8.68L8.68 20.01Z" fill="#FD9222" fill-opacity="1.000000" fill-rule="nonzero"/>
</svg>
