<svg width="6.660004" height="16.860107" viewBox="0 0 6.66 16.8601" fill="none" xmlns="http://www.w3.org/2000/svg" xmlns:xlink="http://www.w3.org/1999/xlink">
	<desc>
			Created with Pixso.
	</desc>
	<defs/>
	<path id="Vector" d="M5.94 0.06C6.12 0.06 6.29 0.06 6.66 0.06L6.66 2.76C6.48 2.76 6.12 2.76 5.76 2.76C5.39 2.76 5.04 2.76 4.86 2.93C4.67 3.12 4.67 3.3 4.67 3.71C4.67 4.08 4.67 4.32 4.67 4.67L6.66 4.67L6.66 6.95L4.67 6.95L4.67 16.86L1.62 16.86L1.62 6.89L0 6.89L0 4.62L1.62 4.62L1.62 3.84C1.62 2.52 1.8 1.56 2.16 1.13C2.7 0.36 3.78 0 5.39 0C5.57 0.06 5.76 0.06 5.94 0.06Z" fill="#111111" fill-opacity="1.000000" fill-rule="nonzero"/>
</svg>
