
<svg aria-hidden="true" style="position:absolute;width:0;height:0;overflow:hidden" xmlns="http://www.w3.org/2000/svg">
  <defs>
    <symbol id="logo" viewBox="0 0 32 32">
      <path fill="none" stroke="#fd9222" style="stroke:var(--color1, #fd9222)" stroke-linejoin="round" stroke-linecap="round" stroke-width="2.783" d="M25.753 7.666 15.708 1.391 3.465 21.481l14.803 9.252 9.864-16.181c-3.172-1.99-4.424-3.534-2.379-6.887zm-3.409 16.362L7.541 14.79m4.09-6.707 14.803 9.252m-15.568 8.766 12.243-20.09"/>
    </symbol>
    <symbol id="facebook" viewBox="0 0 13 32">
      <path d="M11.274.114h1.367v5.125h-1.708c-.702 0-1.367 0-1.708.323-.361.361-.361.702-.361 1.48v1.822h3.777v4.327H8.864V32H3.075V13.077H0V8.769h3.075v-1.48c0-2.505.342-4.327 1.025-5.144C5.125.684 7.175 0 10.23 0c.342.114.702.114 1.044.114z"/>
    </symbol>
    <symbol id="instagram" viewBox="0 0 32 32">
      <path d="M28.707 10.747A9.438 9.438 0 0 0 28.12 7.6a6.576 6.576 0 0 0-3.747-3.733c-1-.373-2.04-.573-3.107-.6-1.373-.053-1.8-.08-5.28-.08-3.467 0-3.907 0-5.267.08a9.472 9.472 0 0 0-3.107.6A6.581 6.581 0 0 0 3.865 7.6c-.373 1-.573 2.04-.6 3.107-.053 1.36-.067 1.8-.067 5.267s0 3.907.067 5.267a9.455 9.455 0 0 0 .6 3.093 6.565 6.565 0 0 0 3.747 3.747c.987.387 2.04.6 3.107.64 1.373.053 1.8.067 5.28.067 3.467 0 3.907 0 5.267-.067a9.472 9.472 0 0 0 3.107-.6 6.581 6.581 0 0 0 3.747-3.733c.373-1 .573-2.04.6-3.107.053-1.373.08-1.8.08-5.267-.013-3.467-.013-3.907-.093-5.267zM15.987 22.52c-3.64 0-6.573-2.933-6.573-6.56s2.933-6.56 6.573-6.56c3.627 0 6.573 2.933 6.573 6.56s-2.947 6.56-6.573 6.56zm6.826-11.827c-.84 0-1.533-.693-1.533-1.533s.693-1.533 1.533-1.533a1.533 1.533 0 0 1 0 3.066z"/>
      <path d="M19.987 15.96c0 2.213-1.787 4.013-4 4.013s-4-1.8-4-4.013c0-2.2 1.787-4 4-4s4 1.8 4 4z"/>
    </symbol>
    <symbol id="twitter" viewBox="0 0 39 32">
      <path d="M39.385 3.781c-1.477.65-3.033 1.063-4.667 1.28a8.13 8.13 0 0 0 3.564-4.47 16.133 16.133 0 0 1-5.12 1.95 8.137 8.137 0 0 0-5.908-2.54 8.072 8.072 0 0 0-8.074 8.074c0 .63.059 1.241.197 1.831-6.715-.315-12.662-3.545-16.64-8.448a8.07 8.07 0 0 0-1.103 4.096c0 2.777 1.438 5.258 3.584 6.695a8.004 8.004 0 0 1-3.663-.985v.079c0 3.938 2.816 7.188 6.479 7.936a8.135 8.135 0 0 1-2.107.276 7.776 7.776 0 0 1-1.536-.138c1.044 3.19 4.017 5.534 7.542 5.612a16.275 16.275 0 0 1-10.004 3.446c-.67 0-1.3-.02-1.93-.118C3.563 30.681 7.797 32 12.366 32c14.868 0 22.981-12.308 22.981-22.981 0-.354 0-.709-.02-1.044a16.444 16.444 0 0 0 4.057-4.194z"/>
    </symbol>
    <symbol id="arrow-down" viewBox="0 0 32 32">
      <path d="M16.947 17.867a1.334 1.334 0 0 1-1.894 0l-6.107-6.12a1.334 1.334 0 1 0-1.894 1.88l6.12 6.12a4.001 4.001 0 0 0 5.654 0l6.12-6.12a1.337 1.337 0 0 0-.434-2.172 1.331 1.331 0 0 0-1.46.292l-6.107 6.12z"/>
    </symbol>
    <symbol id="choco" viewBox="0 0 32 32">
      <path fill="#111" style="fill:var(--color2, #111)" d="m13.506.469 8.593 8.604.091-.091a.993.993 0 0 1 1.36-.011v.011l.994.983a.96.96 0 0 1 .091 1.257v.011l-.16.217 7.039 7.039a1.593 1.593 0 0 1 0 2.262L20.739 31.526a1.593 1.593 0 0 1-2.262 0l-5.085-5.085a.925.925 0 0 1-.309.251.939.939 0 0 1-.389.114.942.942 0 0 1-.4-.069.92.92 0 0 1-.343-.217L8.98 23.549a.978.978 0 0 1-.011-1.348l.011-.011.08-.091-8.593-8.593a1.593 1.593 0 0 1 0-2.262L11.242.469a1.593 1.593 0 0 1 2.262 0zm7.519 9.689-2.011-2.011c-.057-.057-.137-.114-.217-.149s-.171-.057-.263-.057a.685.685 0 0 0-.263.057.78.78 0 0 0-.229.149l-4.091 4.091c-.057.069-.114.149-.149.229s-.057.171-.057.263a.79.79 0 0 0 .057.274.71.71 0 0 0 .149.217l2 2 .697-.697-1.783-1.783 3.668-3.679 1.794 1.794.697-.697zm-5.805 5.793-2-2a.704.704 0 0 0-.217-.16.773.773 0 0 0-.274-.046.737.737 0 0 0-.263.046.587.587 0 0 0-.217.16l-4.091 4.091h-.011v.011a.676.676 0 0 0 0 .971l2 2 .708-.708-1.794-1.783 3.679-3.668 1.783 1.783.697-.697zM7.793 7.073l4.091 4.091a.667.667 0 0 0 .971-.011l4.091-4.091c.057-.069.114-.137.149-.217a.728.728 0 0 0 .057-.263h.011a.703.703 0 0 0-.206-.491L12.866 2a.727.727 0 0 0-.229-.149c-.08-.046-.171-.057-.263-.057s-.183.011-.274.057a.56.56 0 0 0-.217.149L7.792 6.102a.676.676 0 0 0 0 .971zM2 12.866l4.091 4.091a.676.676 0 0 0 .971 0l4.091-4.091a.614.614 0 0 0 .149-.229.681.681 0 0 0 .057-.263h.011a.683.683 0 0 0-.206-.491L7.073 7.792a.614.614 0 0 0-.229-.149c-.08-.046-.171-.057-.263-.057s-.183.011-.263.057a.56.56 0 0 0-.217.149l-4.102 4.102a.676.676 0 0 0 0 .971zm7.918 9.998 2.697 2.708 11.015-14.9-.754-.754L9.918 22.864z"/>
      <path fill="#fd9222" style="fill:var(--color1, #fd9222)" d="m13.506.469 8.593 8.604.091-.091a.993.993 0 0 1 1.36-.011v.011l.994.983a.96.96 0 0 1 .091 1.257v.011l-.16.217 7.039 7.039a1.593 1.593 0 0 1 0 2.262L20.739 31.526a1.593 1.593 0 0 1-2.262 0l-5.085-5.085a.925.925 0 0 1-.309.251.939.939 0 0 1-.389.114.942.942 0 0 1-.4-.069.92.92 0 0 1-.343-.217L8.98 23.549a.978.978 0 0 1-.011-1.348l.011-.011.08-.091-8.593-8.593a1.593 1.593 0 0 1 0-2.262L11.242.469a1.593 1.593 0 0 1 2.262 0zm7.519 9.689-2.011-2.011c-.057-.057-.137-.114-.217-.149s-.171-.057-.263-.057a.685.685 0 0 0-.263.057.78.78 0 0 0-.229.149l-4.091 4.091c-.057.069-.114.149-.149.229s-.057.171-.057.263a.79.79 0 0 0 .057.274.71.71 0 0 0 .149.217l2 2 .697-.697-1.783-1.783 3.668-3.679 1.794 1.794.697-.697zm-5.805 5.793-2-2a.704.704 0 0 0-.217-.16.773.773 0 0 0-.274-.046.737.737 0 0 0-.263.046.587.587 0 0 0-.217.16l-4.091 4.091h-.011v.011a.676.676 0 0 0 0 .971l2 2 .708-.708-1.794-1.783 3.679-3.668 1.783 1.783.697-.697zM7.793 7.073l4.091 4.091a.667.667 0 0 0 .971-.011l4.091-4.091c.057-.069.114-.137.149-.217a.728.728 0 0 0 .057-.263h.011a.703.703 0 0 0-.206-.491L12.866 2a.727.727 0 0 0-.229-.149c-.08-.046-.171-.057-.263-.057s-.183.011-.274.057a.56.56 0 0 0-.217.149L7.792 6.102a.676.676 0 0 0 0 .971zM2 12.866l4.091 4.091a.676.676 0 0 0 .971 0l4.091-4.091a.614.614 0 0 0 .149-.229.681.681 0 0 0 .057-.263h.011a.683.683 0 0 0-.206-.491L7.073 7.792a.614.614 0 0 0-.229-.149c-.08-.046-.171-.057-.263-.057s-.183.011-.263.057a.56.56 0 0 0-.217.149l-4.102 4.102a.676.676 0 0 0 0 .971zm7.918 9.998 2.697 2.708 11.015-14.9-.754-.754L9.918 22.864z"/>
    </symbol>
    <symbol id="coin" viewBox="0 0 32 32">
      <path fill="#fd9222" style="fill:var(--color1, #fd9222)" d="M16 2.66c-7.34 0-13.34 6-13.34 13.34 0 7.33 6 13.33 13.34 13.33 7.33 0 13.33-6 13.33-13.33 0-7.34-6-13.34-13.33-13.34zm0 24c-5.87 0-10.67-4.8-10.67-10.66 0-5.87 4.8-10.67 10.67-10.67 5.86 0 10.66 4.8 10.66 10.67 0 5.86-4.8 10.66-10.66 10.66z"/>
      <path fill="#fd9222" style="fill:var(--color1, #fd9222)" d="M17.73 14.66h-3.47c-.66 0-1.2-.53-1.2-1.2s.54-1.2 1.2-1.2h4.94c.8 0 1.33-.53 1.33-1.33S20 9.59 19.2 9.59h-1.87V8.4c0-.81-.54-1.34-1.33-1.34-.8 0-1.34.53-1.34 1.34v1.19h-.4a3.87 3.87 0 0 0 0 7.74h3.34c.66 0 1.19.53 1.19 1.2s-.53 1.2-1.19 1.2h-4.94c-.8 0-1.33.53-1.33 1.33s.53 1.34 1.33 1.34h2v1.2c0 .8.54 1.33 1.34 1.33.79 0 1.33-.53 1.33-1.33v-1.2h.4c2.13 0 3.87-1.74 3.87-3.87s-1.74-3.87-3.87-3.87z"/>
    </symbol>
    <symbol id="spoon" viewBox="0 0 32 32">
      <path fill="#fd9222" style="fill:var(--color1, #fd9222)" d="M15.354 13.802a5.989 5.989 0 0 1-1.355-3.798C13.999 4.99 19.997 0 25.995 0a5.999 5.999 0 0 1 5.998 5.998c0 5.998-5.002 11.996-10.004 11.996a5.944 5.944 0 0 1-3.809-1.366L3.417 31.414a2.02 2.02 0 0 1-2.837 0 2.02 2.02 0 0 1 0-2.837l14.775-14.775z"/>
    </symbol>
    <symbol id="arrow" viewBox="0 0 32 32" fill="none">
      <path stroke-linejoin="round" stroke-linecap="round" stroke-width="1.333" d="M9.133 16h13.72m-3.426-3.44L22.854 16l-3.427 3.427"/>
      <path stroke-linejoin="round" stroke-width="1.333" d="M16 30.853C7.787 30.853 1.133 24.2 1.133 16 1.133 7.787 7.786 1.133 16 1.133c8.2 0 14.853 6.653 14.853 14.867 0 8.2-6.653 14.853-14.853 14.853z"/>
    </symbol>
    <symbol id="play" viewBox="0 0 32 32">
      <path fill="#f5f4f4" style="fill:var(--color3, #f5f4f4)" d="M10.909 8.727V24l14.545-7.636-14.545-7.636z"/>
      <path fill="none" stroke="#fff" style="stroke:var(--color4, #fff)" stroke-width=".727" d="M31.636 16c0 8.636-7.001 15.636-15.636 15.636S.364 24.635.364 16C.364 7.364 7.365.364 16 .364S31.636 7.365 31.636 16z"/>
    </symbol>
  </defs>
</svg>

